# xmcd
#
# Track frame offsets:
#	150
#	54500
#	106297
#	133410
#	171070
#	190027
#	239820
#	267775
#	317312
#
# Disc length: 4491 seconds
#
# Revision: 1
# Processed by: cddbd v1.5.2PL0 Copyright (c) Steve Scherf et al.
# Submitted via: audiograbber 1.83.01
#
DISCID=7a118909
DTITLE=Grateful Dead - 85-06-28 Hershey Park Stadium, Hershey PA
DYEAR=1900
DGENRE=
TTITLE0=Estimated Prophet
TTITLE1=Terrapin Station
TTITLE2=Drums
TTITLE3=Space
TTITLE4=I Need A Miracle
TTITLE5=Morning Dew
TTITLE6=Throwing Stones
TTITLE7=Not Fade Away
TTITLE8=Keep Your Day Job
EXTD=
EXTT0=
EXTT1=
EXTT2=
EXTT3=
EXTT4=
EXTT5=
EXTT6=
EXTT7=
EXTT8=
PLAYORDER=
